<?xml version="1.0" encoding="UTF-8"?>
<svg id="Vrstva_1" data-name="Vrstva 1" xmlns="http://www.w3.org/2000/svg" viewBox="0 0 222.31 222.31">
  <defs>
    <style>
      .cls-1 {
        fill: #71b4ff;
      }

      .cls-2 {
        fill: #fcfbfd;
      }

      .cls-3 {
        fill: #fff;
      }

      .cls-4 {
        fill: #9b45eb;
      }
    </style>
  </defs>
  <path class="cls-1" d="M67.08,110.88c15.75,3.52,23.21,17.96,22.74,33.26,9.15-7.73,21.54-9.41,32.53-4.54l8.49,6.2c.09-2.45.02-5.8,1.39-7.76h16.91v7.21c-4.49,5.98-4.48,17.86,0,23.84v16.63c-2.18,3.42-3.6,7.92-5.96,11.38.06.7,5.02,3.66,5.96,4.15-.16.67.22,4.44,0,4.44h-16.91c-1.3-.56-1.15-7.22-1.67-7.21-5.15,3.87-9.9,7.69-16.63,8.31-8.1.75-15.63-.61-22.17-5.52l1.95,4.98h-21.9c-3.34-3.15-19.17-31.6-21.07-31.6h-10.81v31.6h-18.85v-95.35c13.08.46,26.07-.62,39.11-.58,2.21,0,4.44.55,6.9.58ZM39.92,156.34h21.9c.37,0,3.54-1.58,4.12-1.98,6.87-4.71,6.76-18.5-.33-22.88-.7-.43-3.78-1.75-4.34-1.75h-21.34v26.61ZM113.55,154.8c-19.59.74-18.94,35.25,1.5,34.27,19.67-.94,18.94-35.04-1.5-34.27ZM79.27,168.53l-6.81,3.44c-.56.33-1.02.39-.9,1.2.23,1.49,8.38,11.63,9.92,13.65-1.31-6.01-2.54-12.1-2.21-18.29Z"/>
  <path class="cls-1" d="M67.08,90.92c-.48-1.95-.99-4.91-1.13-6.91-.93-13.57.74-28.2.02-41.88h20.79c.06,0,.83.77.83.83v40.47c0,.33,1.5,3.64,1.86,4.24,5.06,8.39,17.54,6.73,21.72-1.72.42-.85,1.92-4.69,1.92-5.29v-38.53h19.4V14.41h21.62v53.22l19.13-25.5h23.56l-23.8,32.36,27.68,35.28h-25.78c-7.35-8.33-13.29-17.95-20.79-26.06v26.06h-38.25c-.36-1.95-.55-3.98-1.03-5.91-.14-.56.21-1.76-.9-1.29-.74.31-3.63,3.61-5.32,4.66-7.91,4.92-13.64,3.7-22.13,3.65-9.99-2.74-16.95-9.91-19.4-19.96Z"/>
  <path class="cls-4" d="M149.13,201.24c-.95-.48-5.9-3.44-5.96-4.15,2.36-3.46,3.78-7.95,5.96-11.38.53-.84,1.2-1.63,1.65-2.54.72-.47,5.42,2.34,6.68,2.81,4.59,1.68,21.57,5.85,24.09.28,3.51-7.73-10.19-7.17-14.25-7.91-5.99-1.09-14.4-4.25-18.17-9.27-4.48-5.97-4.49-17.86,0-23.84,9.08-12.1,31.09-11.55,43.79-6.37,1.37.56,6.3,2.8,6.6,3.98.27,1.06-6.65,13.79-7.47,13.98-6.39-3.25-13.29-4.49-20.48-3.86-6.07.53-9.1,5.8-2.62,8.21,5.02,1.87,11.57,1.5,17.22,3.29,7.5,2.38,14.6,7.64,15.58,16.02,3.4,29.02-33.96,30.25-52.61,20.73Z"/>
  <path class="cls-4" d="M21.07,110.88c0-31.78,0-63.58,0-95.35h22.18v75.4h23.84c2.46,10.04,9.42,17.21,19.4,19.96-6.46-.04-12.95.07-19.4,0-2.46-.03-4.7-.57-6.9-.58-13.04-.04-26.03,1.04-39.11.58Z"/>
</svg>